<?xml version="1.0" standalone="no"?>
<!DOCTYPE svg PUBLIC "-//W3C//DTD SVG 20010904//EN"
 "http://www.w3.org/TR/2001/REC-SVG-20010904/DTD/svg10.dtd">
<svg version="1.0" xmlns="http://www.w3.org/2000/svg"
 width="1000.000000pt" height="1000.000000pt" viewBox="0 0 1000.000000 1000.000000"
 preserveAspectRatio="xMidYMid meet">
<metadata>
Created by potrace 1.11, written by Peter Selinger 2001-2013
</metadata>
<g transform="translate(0.000000,1000.000000) scale(0.100000,-0.100000)"
fill="#000000" stroke="none">
<path d="M4750 9998 c-3 -3 -61 -8 -129 -12 -68 -3 -126 -8 -130 -10 -4 -3
-40 -7 -81 -10 -41 -4 -113 -13 -160 -21 -47 -8 -101 -17 -120 -19 -19 -3 -57
-11 -85 -16 -27 -6 -61 -13 -75 -15 -14 -2 -52 -11 -86 -19 -99 -24 -118 -28
-141 -30 -13 0 -23 -4 -23 -8 0 -5 -6 -8 -14 -8 -7 0 -58 -14 -112 -30 -55
-17 -106 -32 -114 -33 -8 -2 -21 -6 -27 -10 -7 -5 -17 -5 -23 -2 -5 3 -10 2
-10 -3 0 -6 -61 -31 -120 -47 -3 -1 -18 -7 -33 -13 -16 -7 -33 -10 -38 -6 -5
3 -9 1 -9 -5 0 -5 -10 -13 -22 -16 -82 -25 -537 -235 -572 -264 -6 -5 -18 -11
-26 -13 -8 -2 -17 -5 -20 -8 -12 -13 -199 -120 -209 -120 -6 0 -11 -4 -11 -8
0 -9 -77 -55 -84 -50 -3 2 -11 -4 -18 -13 -14 -16 -114 -89 -123 -89 -3 0 -18
-11 -32 -24 -14 -13 -37 -30 -52 -38 -14 -7 -30 -19 -34 -25 -4 -7 -12 -13
-17 -13 -5 0 -26 -16 -47 -35 -21 -19 -42 -35 -47 -35 -5 0 -14 -6 -20 -14
-13 -16 -143 -126 -150 -126 -4 0 -54 -46 -148 -139 -32 -31 -58 -53 -58 -50
0 8 -120 -112 -120 -120 0 -3 -31 -36 -68 -74 -37 -37 -72 -73 -77 -80 -6 -6
-47 -55 -91 -107 -84 -100 -197 -248 -279 -365 -27 -38 -52 -72 -55 -75 -3 -3
-12 -18 -20 -33 -8 -16 -23 -39 -35 -52 -11 -12 -21 -28 -23 -35 -4 -17 -42
-72 -57 -82 -5 -4 -7 -8 -3 -8 4 0 -16 -39 -44 -87 -29 -49 -65 -115 -81 -148
-16 -33 -33 -61 -38 -63 -5 -2 -9 -8 -9 -13 0 -5 -21 -53 -46 -107 -57 -121
-66 -142 -100 -222 -15 -36 -33 -80 -40 -97 -8 -18 -15 -36 -16 -40 0 -5 -12
-37 -25 -73 -14 -36 -43 -121 -65 -190 -22 -69 -42 -132 -45 -140 -3 -8 -8
-24 -10 -35 -5 -28 -43 -167 -50 -185 -3 -8 -6 -18 -5 -22 1 -3 -12 -66 -27
-140 -16 -73 -35 -177 -42 -231 -7 -53 -16 -97 -21 -97 -5 0 -6 -5 -3 -10 4
-6 1 -52 -5 -103 -7 -50 -12 -107 -11 -124 1 -18 -2 -33 -7 -33 -5 0 -7 -180
-6 -402 3 -391 5 -454 18 -528 3 -19 8 -59 11 -89 5 -54 7 -72 26 -191 31
-187 117 -561 149 -645 6 -15 8 -30 5 -35 -3 -5 0 -10 6 -12 7 -2 12 -18 13
-36 0 -18 4 -32 7 -32 4 0 10 -12 14 -28 3 -15 22 -67 41 -115 19 -48 32 -92
29 -98 -4 -5 -2 -9 3 -9 9 0 59 -121 53 -129 -1 -2 1 -7 6 -10 14 -10 44 -82
38 -92 -4 -5 -2 -9 3 -9 5 0 26 -37 47 -82 21 -46 43 -94 50 -108 25 -55 171
-310 228 -400 33 -52 64 -104 71 -115 6 -11 14 -22 17 -25 11 -10 69 -99 69
-106 0 -4 6 -12 14 -18 7 -6 54 -65 103 -131 98 -130 207 -260 310 -370 128
-136 263 -272 267 -268 2 2 14 -9 28 -24 13 -15 50 -50 83 -77 33 -27 65 -54
70 -60 6 -6 26 -23 45 -37 19 -15 45 -35 57 -45 39 -34 58 -49 101 -78 23 -16
42 -33 42 -37 0 -5 4 -9 9 -9 7 0 191 -122 267 -177 12 -9 19 -14 169 -101 61
-35 112 -67 115 -71 3 -3 12 -7 20 -9 8 -2 44 -20 80 -40 36 -21 99 -53 140
-71 41 -19 78 -39 81 -44 3 -5 10 -8 15 -8 18 1 44 -11 44 -20 0 -6 4 -8 9 -5
8 5 35 -5 148 -55 23 -11 45 -19 48 -19 4 0 21 -6 38 -14 18 -8 49 -20 70 -26
20 -6 37 -16 37 -21 0 -6 4 -8 9 -5 5 3 35 -4 67 -15 135 -47 514 -149 614
-165 14 -2 36 -7 50 -10 14 -3 36 -8 50 -10 14 -2 41 -7 60 -10 53 -9 156 -25
195 -29 352 -43 1020 -42 1285 0 14 3 48 7 75 11 64 7 88 11 154 24 29 6 56 9
59 6 3 -3 10 -2 16 3 6 5 30 11 54 15 24 3 47 8 51 11 5 2 23 7 42 9 19 3 69
15 112 26 43 11 82 18 87 15 6 -4 10 -2 10 3 0 6 33 18 73 28 39 10 74 19 77
19 3 1 12 4 20 8 51 19 114 36 120 32 5 -3 10 -2 12 3 1 4 62 29 133 56 72 26
144 53 160 61 17 7 55 23 85 35 63 26 188 84 241 111 20 10 39 16 43 12 3 -3
6 -2 6 3 0 5 39 30 87 54 48 25 93 51 101 58 7 7 18 10 23 7 5 -4 9 -2 9 3 0
5 21 20 47 33 26 13 53 29 59 34 6 6 41 28 77 50 57 34 241 158 272 183 6 4
28 21 50 37 22 16 61 47 88 68 26 21 47 37 47 34 0 -3 13 7 29 21 30 29 56 51
141 122 29 25 67 60 83 78 17 17 32 31 34 29 4 -5 213 204 213 213 0 4 21 27
48 52 26 26 67 70 92 99 25 30 57 66 73 82 15 16 27 31 27 34 0 4 7 13 15 22
9 9 50 61 92 116 43 55 81 102 85 103 4 2 8 10 8 18 0 8 7 17 15 20 8 4 15 10
15 15 0 14 119 191 138 206 9 7 13 13 9 13 -4 0 22 48 58 106 36 59 65 110 65
114 0 5 3 10 8 12 4 1 22 32 39 68 18 36 44 85 57 110 14 25 46 90 71 145 25
55 52 114 60 130 32 71 136 348 165 445 18 58 35 109 38 115 3 5 7 16 7 25 2
16 42 165 52 190 3 8 7 28 9 44 2 16 9 34 14 41 5 7 8 14 5 17 -3 2 6 58 20
124 26 128 28 138 45 259 6 44 14 91 17 105 4 14 8 265 10 558 4 458 2 552
-13 670 -9 75 -18 151 -19 167 -2 17 -5 37 -8 45 -12 32 -36 193 -31 201 3 5
0 9 -5 9 -6 0 -11 8 -11 18 0 9 -13 71 -29 137 -16 66 -27 123 -25 127 3 5 1
8 -4 8 -5 0 -9 6 -10 13 0 6 -16 63 -35 125 -20 62 -35 114 -35 115 -1 1 -5
15 -11 30 -6 16 -11 34 -11 42 0 8 -4 16 -9 19 -4 3 -14 27 -21 53 -7 27 -16
53 -20 58 -4 6 -17 37 -30 70 -39 99 -140 326 -171 385 -17 30 -46 87 -66 125
-19 39 -46 88 -59 110 -13 22 -29 51 -36 65 -7 14 -15 27 -18 30 -8 7 -64 104
-63 110 0 3 -6 10 -12 15 -13 10 -172 242 -190 276 -5 11 -13 19 -17 19 -5 0
-8 7 -8 15 0 8 -4 15 -9 15 -5 0 -34 34 -65 75 -64 85 -113 142 -230 270 -45
50 -100 110 -122 134 -21 25 -57 61 -79 80 -22 20 -70 65 -107 102 -37 36 -69
64 -71 62 -2 -2 -20 14 -40 36 -19 22 -37 37 -40 35 -2 -3 -16 9 -30 26 -15
17 -29 30 -32 30 -4 -1 -26 16 -50 37 -24 21 -53 45 -65 53 -80 56 -226 165
-228 172 -2 4 -8 8 -13 8 -11 0 -153 92 -157 103 -2 4 -8 7 -14 7 -6 0 -30 14
-55 30 -24 17 -47 30 -52 30 -4 0 -17 9 -29 20 -12 11 -23 20 -24 19 -8 -3
-58 26 -58 33 0 5 -4 7 -8 4 -5 -3 -19 2 -33 12 -13 9 -78 43 -144 75 -66 33
-122 62 -125 66 -3 3 -12 7 -20 9 -8 2 -64 25 -125 52 -60 26 -120 51 -132 55
-13 3 -23 11 -23 16 0 6 -4 8 -9 5 -8 -5 -40 5 -106 34 -28 12 -58 23 -71 25
-7 2 -61 19 -120 38 -60 19 -136 42 -169 51 -33 10 -67 20 -75 23 -8 3 -24 7
-35 9 -11 2 -69 15 -130 29 -141 33 -439 85 -530 92 -38 2 -72 8 -75 11 -6 8
-11 8 -450 17 -179 4 -327 5 -330 3z"/>
</g>
</svg>
